<svg xmlns="http://www.w3.org/2000/svg" xmlns:xlink="http://www.w3.org/1999/xlink" width="428" height="926" viewBox="0 0 428 926">
  <defs>
    <style>
      .cls-1 {
        clip-path: url(#clip-Home);
      }

      .cls-2, .cls-3 {
        fill: #fff;
      }

      .cls-2 {
        stroke: #707070;
      }

      .cls-4 {
        fill: #fcfcfc;
        font-size: 40px;
        font-family: Roboto-Regular, Roboto;
        mix-blend-mode: color-dodge;
        isolation: isolate;
      }

      .cls-5 {
        stroke: none;
      }

      .cls-6 {
        fill: none;
      }

      .cls-7 {
        fill: #cfcdd6;
      }
    </style>
    <clipPath id="clip-Home">
      <rect width="428" height="926"/>
    </clipPath>
  </defs>
  <g id="Home" class="cls-1">
    <rect class="cls-7" width="428" height="926"/>
    <g id="Rectangle_1" data-name="Rectangle 1" class="cls-2" transform="translate(0 855)">
      <rect class="cls-5" width="428" height="112" rx="41"/>
      <rect class="cls-6" x="0.5" y="0.5" width="427" height="111" rx="40.5"/>
    </g>
    <path id="Icon_awesome-dumbbell" data-name="Icon awesome-dumbbell" d="M7.313,6.75H3.938A1.683,1.683,0,0,0,2.25,8.438V15.75H.563A.564.564,0,0,0,0,16.313v3.375a.564.564,0,0,0,.563.563H2.25v7.313A1.683,1.683,0,0,0,3.938,29.25H7.313A1.683,1.683,0,0,0,9,27.563V8.438A1.683,1.683,0,0,0,7.313,6.75Zm37.125,9H42.75V8.438A1.683,1.683,0,0,0,41.063,6.75H37.688A1.683,1.683,0,0,0,36,8.438V27.563a1.683,1.683,0,0,0,1.688,1.688h3.375a1.683,1.683,0,0,0,1.688-1.687V20.25h1.688A.564.564,0,0,0,45,19.688V16.313A.564.564,0,0,0,44.438,15.75ZM32.063,2.25H28.688A1.683,1.683,0,0,0,27,3.938V15.75H18V3.938A1.683,1.683,0,0,0,16.313,2.25H12.938A1.683,1.683,0,0,0,11.25,3.938V32.063a1.683,1.683,0,0,0,1.688,1.688h3.375A1.683,1.683,0,0,0,18,32.063V20.25h9V32.063a1.683,1.683,0,0,0,1.688,1.688h3.375a1.683,1.683,0,0,0,1.688-1.687V3.938A1.683,1.683,0,0,0,32.063,2.25Z" transform="translate(242.5 877.25)"/>
    <path id="Icon_metro-plus" data-name="Icon metro-plus" d="M32.455,13.5h-10.6V2.892a.964.964,0,0,0-.964-.964H15.1a.964.964,0,0,0-.964.964V13.5H3.535a.964.964,0,0,0-.964.964v5.784a.964.964,0,0,0,.964.964h10.6v10.6a.964.964,0,0,0,.964.964h5.784a.964.964,0,0,0,.964-.964v-10.6h10.6a.964.964,0,0,0,.964-.964V14.46A.964.964,0,0,0,32.455,13.5Z" transform="translate(328.514 878.223)"/>
    <path id="Icon_awesome-calendar-day" data-name="Icon awesome-calendar-day" d="M0,32.625A3.376,3.376,0,0,0,3.375,36h24.75A3.376,3.376,0,0,0,31.5,32.625V13.5H0Zm4.5-13.5A1.128,1.128,0,0,1,5.625,18h6.75A1.128,1.128,0,0,1,13.5,19.125v6.75A1.128,1.128,0,0,1,12.375,27H5.625A1.128,1.128,0,0,1,4.5,25.875ZM28.125,4.5H24.75V1.125A1.128,1.128,0,0,0,23.625,0h-2.25A1.128,1.128,0,0,0,20.25,1.125V4.5h-9V1.125A1.128,1.128,0,0,0,10.125,0H7.875A1.128,1.128,0,0,0,6.75,1.125V4.5H3.375A3.376,3.376,0,0,0,0,7.875V11.25H31.5V7.875A3.376,3.376,0,0,0,28.125,4.5Z" transform="translate(88.955 875)"/>
    <path id="Icon_awesome-clock" data-name="Icon awesome-clock" d="M18,.563A17.438,17.438,0,1,0,35.438,18,17.434,17.434,0,0,0,18,.563Zm4.015,24.616-6.2-4.507a.849.849,0,0,1-.345-.682V8.156a.846.846,0,0,1,.844-.844h3.375a.846.846,0,0,1,.844.844v9.682L25,21.087a.843.843,0,0,1,.183,1.181L23.2,25A.85.85,0,0,1,22.015,25.179Z" transform="translate(162.063 875.563)"/>
    <path id="Icon_awesome-dumbbell-2" data-name="Icon awesome-dumbbell" d="M7.313,6.75H3.938A1.683,1.683,0,0,0,2.25,8.438V15.75H.563A.564.564,0,0,0,0,16.313v3.375a.564.564,0,0,0,.563.563H2.25v7.313A1.683,1.683,0,0,0,3.938,29.25H7.313A1.683,1.683,0,0,0,9,27.563V8.438A1.683,1.683,0,0,0,7.313,6.75Zm37.125,9H42.75V8.438A1.683,1.683,0,0,0,41.063,6.75H37.688A1.683,1.683,0,0,0,36,8.438V27.563a1.683,1.683,0,0,0,1.688,1.688h3.375a1.683,1.683,0,0,0,1.688-1.687V20.25h1.688A.564.564,0,0,0,45,19.688V16.313A.564.564,0,0,0,44.438,15.75ZM32.063,2.25H28.688A1.683,1.683,0,0,0,27,3.938V15.75H18V3.938A1.683,1.683,0,0,0,16.313,2.25H12.938A1.683,1.683,0,0,0,11.25,3.938V32.063a1.683,1.683,0,0,0,1.688,1.688h3.375A1.683,1.683,0,0,0,18,32.063V20.25h9V32.063a1.683,1.683,0,0,0,1.688,1.688h3.375a1.683,1.683,0,0,0,1.688-1.687V3.938A1.683,1.683,0,0,0,32.063,2.25Z" transform="translate(242.5 877.25)"/>
    <path id="Icon_awesome-dumbbell-3" data-name="Icon awesome-dumbbell" d="M7.313,6.75H3.938A1.683,1.683,0,0,0,2.25,8.438V15.75H.563A.564.564,0,0,0,0,16.313v3.375a.564.564,0,0,0,.563.563H2.25v7.313A1.683,1.683,0,0,0,3.938,29.25H7.313A1.683,1.683,0,0,0,9,27.563V8.438A1.683,1.683,0,0,0,7.313,6.75Zm37.125,9H42.75V8.438A1.683,1.683,0,0,0,41.063,6.75H37.688A1.683,1.683,0,0,0,36,8.438V27.563a1.683,1.683,0,0,0,1.688,1.688h3.375a1.683,1.683,0,0,0,1.688-1.687V20.25h1.688A.564.564,0,0,0,45,19.688V16.313A.564.564,0,0,0,44.438,15.75ZM32.063,2.25H28.688A1.683,1.683,0,0,0,27,3.938V15.75H18V3.938A1.683,1.683,0,0,0,16.313,2.25H12.938A1.683,1.683,0,0,0,11.25,3.938V32.063a1.683,1.683,0,0,0,1.688,1.688h3.375A1.683,1.683,0,0,0,18,32.063V20.25h9V32.063a1.683,1.683,0,0,0,1.688,1.688h3.375a1.683,1.683,0,0,0,1.688-1.687V3.938A1.683,1.683,0,0,0,32.063,2.25Z" transform="translate(242.5 877.25)"/>
    <path id="Icon_awesome-dumbbell-4" data-name="Icon awesome-dumbbell" d="M7.313,6.75H3.938A1.683,1.683,0,0,0,2.25,8.438V15.75H.563A.564.564,0,0,0,0,16.313v3.375a.564.564,0,0,0,.563.563H2.25v7.313A1.683,1.683,0,0,0,3.938,29.25H7.313A1.683,1.683,0,0,0,9,27.563V8.438A1.683,1.683,0,0,0,7.313,6.75Zm37.125,9H42.75V8.438A1.683,1.683,0,0,0,41.063,6.75H37.688A1.683,1.683,0,0,0,36,8.438V27.563a1.683,1.683,0,0,0,1.688,1.688h3.375a1.683,1.683,0,0,0,1.688-1.687V20.25h1.688A.564.564,0,0,0,45,19.688V16.313A.564.564,0,0,0,44.438,15.75ZM32.063,2.25H28.688A1.683,1.683,0,0,0,27,3.938V15.75H18V3.938A1.683,1.683,0,0,0,16.313,2.25H12.938A1.683,1.683,0,0,0,11.25,3.938V32.063a1.683,1.683,0,0,0,1.688,1.688h3.375A1.683,1.683,0,0,0,18,32.063V20.25h9V32.063a1.683,1.683,0,0,0,1.688,1.688h3.375a1.683,1.683,0,0,0,1.688-1.687V3.938A1.683,1.683,0,0,0,32.063,2.25Z" transform="translate(242.5 877.25)"/>
    <path id="Icon_awesome-dumbbell-5" data-name="Icon awesome-dumbbell" class="cls-3" d="M34.375,26.073H18.51c-4.4,0-7.933,3.983-7.933,8.933V73.718H2.644A2.834,2.834,0,0,0,0,76.7V94.562A2.834,2.834,0,0,0,2.644,97.54h7.933v38.712c0,4.951,3.537,8.933,7.933,8.933H34.375c4.4,0,7.933-3.983,7.933-8.933V35.006C42.308,30.055,38.771,26.073,34.375,26.073ZM208.9,73.718h-7.933V35.006c0-4.951-3.537-8.933-7.933-8.933H177.165c-4.4,0-7.933,3.983-7.933,8.933V136.252c0,4.951,3.537,8.933,7.933,8.933H193.03c4.4,0,7.933-3.983,7.933-8.933V97.54H208.9a2.834,2.834,0,0,0,2.644-2.978V76.7A2.834,2.834,0,0,0,208.9,73.718ZM150.722,2.25H134.857c-4.4,0-7.933,3.983-7.933,8.933V73.718H84.616V11.183c0-4.951-3.537-8.933-7.933-8.933H60.818c-4.4,0-7.933,3.983-7.933,8.933V160.074c0,4.951,3.537,8.933,7.933,8.933H76.683c4.4,0,7.933-3.983,7.933-8.933V97.54h42.308v62.534c0,4.951,3.537,8.933,7.933,8.933h15.865c4.4,0,7.933-3.983,7.933-8.933V11.183C158.655,6.233,155.118,2.25,150.722,2.25Z" transform="translate(108.23 70.25)"/>
    <text id="The_Workout_Tracker" data-name="The Workout Tracker" class="cls-4" transform="translate(213 305)"><tspan x="-184.199" y="0">The Workout Tracker</tspan></text>
  </g>
</svg>
